<svg width="76" height="76" viewBox="0 0 76 76" fill="none" xmlns="http://www.w3.org/2000/svg">
<path d="M38.0556 15.1998C43.8425 15.1998 48.5166 19.8739 48.5166 25.7721C48.5166 31.5591 43.8425 36.2332 38.0556 36.2332C32.1574 36.2332 27.4833 31.5591 27.4833 25.7721C27.4833 19.8739 32.1574 15.1998 38.0556 15.1998ZM38.0556 17.4256C33.3815 17.4256 29.709 21.0981 29.709 25.7721C29.709 30.3349 33.3815 34.0074 38.0556 34.0074C42.6184 34.0074 46.2909 30.3349 46.2909 25.7721C46.2909 21.0981 42.6184 17.4256 38.0556 17.4256Z" fill="#5051DB"/>
<path d="M24.4787 52.37C24.4787 52.9264 23.9222 53.3716 23.2545 53.2603C22.6981 53.2603 22.2529 52.7038 22.3642 52.0361C23.2545 44.1347 29.9318 38.0139 38.0558 38.0139C46.0685 38.0139 52.857 44.1347 53.7473 52.0361C53.7473 52.7038 53.3021 53.2603 52.7457 53.2603C52.078 53.3716 51.5215 52.9264 51.5215 52.37C50.7425 45.4702 44.9556 40.2396 38.0558 40.2396C31.1559 40.2396 25.2577 45.4702 24.4787 52.37Z" fill="#5051DB"/>
<path d="M58.6436 24.2142C63.2064 24.2142 66.8789 27.8867 66.8789 32.3382C66.8789 36.901 63.2064 40.5734 58.6436 40.5734C54.1921 40.5734 50.5197 36.901 50.5197 32.3382C50.5197 27.8867 54.1921 24.2142 58.6436 24.2142ZM58.6436 26.4399C55.4163 26.4399 52.7454 29.1108 52.7454 32.3382C52.7454 35.6768 55.4163 38.3477 58.6436 38.3477C61.9823 38.3477 64.6532 35.6768 64.6532 32.3382C64.6532 29.1108 61.9823 26.4399 58.6436 26.4399Z" fill="#5051DB"/>
<path d="M54.1923 45.025C53.6358 45.3589 52.9681 45.1363 52.6342 44.5798C52.4117 44.0234 52.6342 43.3557 53.1907 43.0218C54.86 42.2428 56.7519 41.6864 58.6438 41.6864C64.6533 41.6864 69.7725 46.1379 70.6628 52.0361C70.7741 52.5926 70.329 53.2603 69.7725 53.2603C69.1048 53.3716 68.5484 52.9264 68.4371 52.37C67.7693 47.4733 63.5404 43.9121 58.6438 43.9121C57.0857 43.9121 55.5277 44.3573 54.1923 45.025Z" fill="#5051DB"/>
<path d="M17.3562 24.2142C21.8077 24.2142 25.4802 27.8867 25.4802 32.3382C25.4802 36.901 21.8077 40.5734 17.3562 40.5734C12.7935 40.5734 9.12097 36.901 9.12097 32.3382C9.12097 27.8867 12.7935 24.2142 17.3562 24.2142ZM17.3562 26.4399C14.0176 26.4399 11.3467 29.1108 11.3467 32.3382C11.3467 35.6768 14.0176 38.3477 17.3562 38.3477C20.5836 38.3477 23.2545 35.6768 23.2545 32.3382C23.2545 29.1108 20.5836 26.4399 17.3562 26.4399Z" fill="#5051DB"/>
<path d="M7.56286 52.37C7.45157 52.9264 6.89514 53.3716 6.3387 53.2603C5.67097 53.2603 5.22582 52.5926 5.33711 52.0361C6.22741 46.1379 11.3466 41.6864 17.3562 41.6864C19.2481 41.6864 21.1399 42.2428 22.9205 43.0218C23.3657 43.3557 23.5883 44.0234 23.3657 44.5798C23.0318 45.1363 22.3641 45.3589 21.8077 45.025C20.4722 44.3573 18.9142 43.9121 17.3562 43.9121C12.4595 43.9121 8.23059 47.4733 7.56286 52.37Z" fill="#5051DB"/>
</svg>
