<svg width="60" height="60" viewBox="0 0 60 60" fill="none" xmlns="http://www.w3.org/2000/svg">
<circle cx="30" cy="30" r="30" fill="#5051DB" fill-opacity="0.04"/>
<circle cx="30" cy="30" r="29" stroke="#5051DB" stroke-opacity="0.08" stroke-width="2"/>
<path d="M56.125 32.5041L49.8795 16.863C49.7179 16.459 49.2628 16.261 48.8572 16.4168L42.1889 18.9883C41.9918 19.0642 41.8333 19.2157 41.7481 19.4094C41.6633 19.6027 41.6586 19.822 41.7361 20.0188L42.1435 21.0559L39.1107 21.872L34.6483 20.3721C32.6347 19.6949 30.4662 19.7792 28.5231 20.5609C28.1009 20.2397 27.5912 20.0246 26.9927 19.9343C26.0738 19.7952 25.0782 19.9951 24.1907 20.4968L20.3729 22.6523L18.7758 21.8667L19.368 20.6858C19.4625 20.4968 19.478 20.2779 19.4106 20.0776C19.3436 19.877 19.1987 19.7119 19.0093 19.6186L12.6014 16.4629C12.2109 16.2699 11.7406 16.4284 11.5434 16.815L3.90442 31.8362C3.70607 32.2267 3.86141 32.7039 4.25191 32.9027L10.7024 36.1847C10.8151 36.242 10.9383 36.2711 11.0623 36.2711C11.1456 36.2711 11.2292 36.2579 11.3102 36.2316C11.5109 36.1653 11.6767 36.022 11.7716 35.8333L12.2599 34.8596L14.4264 36.2092C14.3467 36.5115 14.3264 36.8288 14.3764 37.147C14.4721 37.7571 14.8014 38.2925 15.3039 38.6555L15.8613 39.0576C16.2712 39.3539 16.7473 39.4965 17.2195 39.4965C17.2224 39.4965 17.2251 39.4955 17.228 39.4955C17.2355 39.6318 17.244 39.7683 17.273 39.9017C17.4136 40.551 17.7925 41.1011 18.3399 41.4505C18.7416 41.707 19.1941 41.829 19.6473 41.829C19.7056 41.829 19.7627 41.8108 19.8209 41.8068C19.8248 41.8599 19.8194 41.9126 19.8267 41.9657C19.9154 42.6084 20.2451 43.174 20.7553 43.5575C21.1837 43.8795 21.6896 44.0344 22.1979 44.0344C22.4609 44.0344 22.7205 43.978 22.974 43.8966C23.1461 44.3121 23.4279 44.6903 23.8052 44.9739C24.2732 45.3256 24.8178 45.4968 25.3435 45.4968C26.0114 45.4968 26.6487 45.2202 27.0581 44.6849L27.4769 44.1372C28.3539 44.8577 29.9395 45.9435 31.5442 45.9435C31.7549 45.9435 31.966 45.9245 32.1756 45.8838C33.1592 45.6922 33.9388 45.0675 34.4977 44.0244C34.7217 44.0712 34.9488 44.1045 35.1822 44.1045C35.186 44.1045 35.1899 44.1045 35.1934 44.1045C36.481 44.0999 37.6144 43.3325 38.5716 41.8402C38.8236 41.8975 39.0771 41.9382 39.3331 41.9382C39.3978 41.9382 39.4633 41.9363 39.5283 41.932C40.8174 41.8513 41.88 40.9992 42.6969 39.4168C42.8405 39.4439 42.984 39.4703 43.1245 39.4756C43.1594 39.4771 43.1942 39.4775 43.2287 39.4775C43.9865 39.4775 44.6512 39.1587 45.1556 38.5513C45.9393 37.608 46.2934 36.6685 46.2078 35.7589C46.1886 35.5541 46.1466 35.3533 46.0832 35.1575L47.5134 34.7269L47.9278 35.7818C48.0049 35.9786 48.1575 36.1363 48.3516 36.2199C48.4519 36.2633 48.5589 36.285 48.6662 36.285C48.7661 36.285 48.8665 36.266 48.9614 36.2281L55.6834 33.5345C56.0898 33.3718 56.2874 32.9104 56.125 32.5041ZM10.7109 34.4089L5.67868 31.8482L12.6029 18.2325L17.5914 20.6889L16.997 21.8742C16.9968 21.8748 16.9962 21.875 16.996 21.8755C16.9957 21.876 16.9958 21.8765 16.9956 21.877L10.7109 34.4089ZM16.2328 37.3689C16.0759 37.2558 15.9737 37.0892 15.9438 36.9006C15.9144 36.7135 15.9605 36.5256 16.0736 36.3718C16.2162 36.1773 16.4389 36.0743 16.6652 36.0743C16.8155 36.0743 16.9673 36.1196 17.0979 36.2141L17.6549 36.6158C17.8114 36.729 17.9141 36.8955 17.9439 37.0846C17.9734 37.2717 17.9273 37.4596 17.8142 37.6134C17.5775 37.9365 17.1176 38.0074 16.7903 37.7714L16.2328 37.3689ZM19.1937 40.1132C18.9527 39.959 18.8593 39.7305 18.8237 39.5658C18.7625 39.2834 18.8249 38.9716 18.9949 38.7097L19.4443 38.0174C19.7717 37.515 20.3946 37.3329 20.8323 37.6134C21.0737 37.7672 21.1667 37.9957 21.2027 38.1604C21.2639 38.4428 21.2015 38.755 21.0318 39.0161L20.5817 39.7088C20.2555 40.2116 19.6314 40.3925 19.1937 40.1132ZM21.709 42.2892C21.5393 42.1618 21.4289 41.97 21.3987 41.7496C21.3631 41.4912 21.4363 41.2278 21.6048 41.0073L23.1129 39.0347C23.4395 38.6078 24.019 38.4951 24.4041 38.7852C24.5738 38.9127 24.6838 39.1041 24.714 39.3245C24.7497 39.5829 24.6764 39.8467 24.5083 40.0671L24.4028 40.2052C24.4024 40.2057 24.4018 40.2061 24.4014 40.2066L23.2044 41.7721C23.2041 41.7724 23.2039 41.7728 23.2037 41.7732L22.9998 42.0397C22.6732 42.467 22.0925 42.5782 21.709 42.2892ZM24.7586 43.7055C24.549 43.5479 24.4111 43.3298 24.3805 43.107C24.3665 43.0064 24.3702 42.8602 24.4648 42.7363L25.6159 41.2306L25.662 41.1704C25.7608 41.0414 25.925 40.9771 26.1094 40.9771C26.3019 40.9771 26.5162 41.0472 26.701 41.1859C26.9105 41.3436 27.0485 41.5617 27.0791 41.7844C27.093 41.8852 27.0895 42.0316 26.9946 42.1556L25.7976 43.721C25.5965 43.9845 25.1204 43.9767 24.7586 43.7055ZM43.9349 37.5375C43.723 37.7931 43.4879 37.9059 43.1849 37.89C41.5544 37.8284 38.7617 34.7285 37.3841 32.7888C37.1308 32.4312 36.6349 32.3479 36.2781 32.6009C35.9209 32.8546 35.8365 33.3497 36.0902 33.7069C36.4147 34.1646 38.7872 37.4283 41.219 38.8323C40.6942 39.7963 40.0935 40.3065 39.4296 40.3484C37.5689 40.4813 35.0749 37.1869 34.3559 36.0278C34.125 35.6555 33.6369 35.5404 33.2638 35.7709C32.8915 36.0018 32.7765 36.4903 33.0066 36.8626C33.2517 37.2591 34.9452 39.9139 37.0822 41.218C36.4819 42.0738 35.8474 42.5146 35.1895 42.5178C35.1872 42.5178 35.1849 42.5178 35.1822 42.5178C33.5931 42.5178 31.8889 40.1864 31.3656 39.2869C31.1455 38.9081 30.659 38.7783 30.2816 38.9995C29.9028 39.2191 29.7734 39.7038 29.993 40.0826C30.1648 40.3794 31.3406 42.3284 33.0215 43.3996C32.7093 43.9258 32.3327 44.2362 31.8738 44.3261C30.7548 44.5437 29.2778 43.564 28.4197 42.852C28.6277 42.4677 28.7136 42.0241 28.6511 41.5683C28.5632 40.9295 28.2002 40.3278 27.6547 39.9176C27.2403 39.6061 26.7658 39.4406 26.2971 39.4059C26.2952 39.3066 26.2998 39.2076 26.2861 39.1079C26.1977 38.4656 25.8681 37.9004 25.3579 37.5169C24.551 36.9106 23.4684 36.8971 22.6163 37.3956C22.4263 36.9344 22.1079 36.5446 21.6862 36.2757C20.9508 35.806 20.0451 35.7886 19.2746 36.145C19.111 35.8275 18.8826 35.5454 18.5835 35.3293L18.0265 34.9276C17.208 34.3358 16.131 34.3653 15.3437 34.9114L12.9742 33.4353L18.0644 23.2853L20.0483 24.2611C20.1591 24.3153 20.2788 24.3425 20.3985 24.3425C20.5333 24.3425 20.6677 24.308 20.7886 24.2398L24.9709 21.8782C25.5516 21.5505 26.1857 21.4184 26.756 21.5032C26.7565 21.5033 26.7568 21.5035 26.7573 21.5036C25.462 22.4121 24.4711 23.6449 23.9338 25.0324C22.9181 27.6566 24.1449 29.0675 24.943 29.4506C25.8286 29.8644 26.6684 29.9155 27.4378 29.6029C28.6255 29.1217 29.3023 27.8987 29.6614 26.9574C29.7761 26.656 30.0054 26.4158 30.306 26.2817C30.6423 26.1314 31.0254 26.1384 31.3567 26.3011L36.1813 28.6735C38.1236 29.6288 39.8739 30.8983 41.3843 32.4475C42.1754 33.2587 43.0385 34.0517 43.9493 34.8032C44.363 35.1449 44.5916 35.5164 44.628 35.9073C44.6725 36.3819 44.4397 36.93 43.9349 37.5375ZM45.1626 33.7777C45.0935 33.7123 45.0353 33.6423 44.9596 33.5798C44.0926 32.8639 43.2717 32.1105 42.5202 31.3395C40.8834 29.661 38.9864 28.285 36.8817 27.2494L32.0567 24.8771C31.3024 24.5059 30.4285 24.4889 29.6595 24.8325C28.9707 25.1397 28.4446 25.6937 28.1785 26.3925C27.9767 26.9217 27.535 27.8515 26.8424 28.1319C26.491 28.2737 26.0893 28.235 25.6411 28.0258C25.5427 27.9716 24.7028 27.4416 25.4137 25.6054C25.8998 24.3498 26.8679 23.2469 28.1401 22.4996C29.9566 21.4316 32.1458 21.2042 34.1424 21.8759L38.8322 23.4526C38.9809 23.5022 39.1409 23.5076 39.2912 23.4669L42.7273 22.5422L46.9314 33.2451L45.1626 33.7777ZM49.1124 34.4581L43.5049 20.1815L48.6968 18.1794L54.3574 32.3565L49.1124 34.4581Z" fill="#5051DB"/>
<path d="M9.79204 29.958C9.4984 29.8309 9.14935 29.9026 8.92738 30.1246C8.77668 30.2753 8.69727 30.4818 8.69727 30.6878C8.69727 30.8943 8.77668 31.1004 8.92738 31.2511C9.07807 31.3941 9.28417 31.4812 9.49065 31.4812C9.69674 31.4812 9.90322 31.3941 10.0458 31.2511C10.1965 31.1004 10.284 30.8943 10.284 30.6878C10.284 30.4818 10.1965 30.2753 10.0458 30.1246C9.9745 30.0533 9.88734 29.9975 9.79204 29.958Z" fill="#5051DB"/>
<path d="M50.9131 31.4812C51.1192 31.4812 51.3256 31.3941 51.4682 31.2511C51.6193 31.1004 51.7065 30.8943 51.7065 30.6878C51.7065 30.4818 51.6193 30.2753 51.4682 30.1246C51.254 29.9026 50.8972 29.8309 50.6117 29.958C50.5082 29.9975 50.4211 30.0533 50.3498 30.1246C50.1991 30.2753 50.1197 30.4818 50.1197 30.6878C50.1197 30.8943 50.1991 31.1004 50.3498 31.2511C50.5005 31.3941 50.7066 31.4812 50.9131 31.4812Z" fill="#5051DB"/>
</svg>
