<svg width="11" height="19" viewBox="0 0 11 19" fill="none" xmlns="http://www.w3.org/2000/svg">
<path d="M8.00264 5.18589C8.02731 5.15955 8.14265 5.07352 8.59561 5.07352L10.0807 5.073C10.5639 5.073 10.9567 4.70121 10.9567 4.24418V1.78875C10.9567 1.3325 10.5644 0.960714 10.0821 0.959932L7.87614 0.956543C6.51464 0.956543 5.35722 1.38138 4.52902 2.1853C3.70454 2.98557 3.26866 4.10274 3.26866 5.41584V6.74015H1.58111C1.09797 6.74015 0.704956 7.11193 0.704956 7.56897V10.2134C0.704956 10.6705 1.09797 11.0422 1.58111 11.0422H3.26866V17.214C3.26866 17.6711 3.66168 18.0429 4.14482 18.0429H7.03733C7.52047 18.0429 7.91348 17.6711 7.91348 17.214V11.0424H9.97627C10.4594 11.0424 10.8523 10.6705 10.8523 10.2137L10.8534 7.5691C10.8534 7.26888 10.6807 6.99109 10.4026 6.84417C10.2738 6.77613 10.1239 6.74015 9.96924 6.74015H7.91348V5.69389C7.91348 5.35288 7.96199 5.22943 8.00264 5.18589Z" fill="white"/>
</svg>
