<svg width="18" height="19" viewBox="0 0 18 19" fill="none" xmlns="http://www.w3.org/2000/svg">
<path d="M12.6389 0.956543H6.23156C3.28311 0.956543 0.89209 3.34756 0.89209 6.29602V12.7034C0.89209 15.6518 3.28311 18.0429 6.23156 18.0429H12.6389C15.5874 18.0429 17.9784 15.6518 17.9784 12.7034V6.29602C17.9784 3.34756 15.5874 0.956543 12.6389 0.956543ZM16.3766 12.7034C16.3766 14.7644 14.7 16.441 12.6389 16.441H6.23156C4.17053 16.441 2.49393 14.7644 2.49393 12.7034V6.29602C2.49393 4.23498 4.17053 2.55839 6.23156 2.55839H12.6389C14.7 2.55839 16.3766 4.23498 16.3766 6.29602V12.7034Z" fill="white"/>
<path d="M9.43515 5.22803C7.07617 5.22803 5.16357 7.14063 5.16357 9.49961C5.16357 11.8586 7.07617 13.7712 9.43515 13.7712C11.7941 13.7712 13.7067 11.8586 13.7067 9.49961C13.7067 7.14063 11.7941 5.22803 9.43515 5.22803ZM9.43515 12.1693C7.96359 12.1693 6.76542 10.9712 6.76542 9.49961C6.76542 8.02698 7.96359 6.82987 9.43515 6.82987C10.9067 6.82987 12.1049 8.02698 12.1049 9.49961C12.1049 10.9712 10.9067 12.1693 9.43515 12.1693Z" fill="white"/>
<path d="M14.0272 5.47675C14.3415 5.47675 14.5964 5.22192 14.5964 4.90757C14.5964 4.59321 14.3415 4.33838 14.0272 4.33838C13.7128 4.33838 13.458 4.59321 13.458 4.90757C13.458 5.22192 13.7128 5.47675 14.0272 5.47675Z" fill="white"/>
</svg>
