<svg width="18" height="19" viewBox="0 0 18 19" fill="none" xmlns="http://www.w3.org/2000/svg">
<path d="M2.98577 0.956543C1.73287 0.956543 0.913696 1.81727 0.913696 2.94857C0.913696 4.05489 1.70846 4.94017 2.93769 4.94017H2.96147C4.23887 4.94017 5.03385 4.05489 5.03385 2.94857C5.00997 1.81727 4.23887 0.956543 2.98577 0.956543Z" fill="white"/>
<path d="M1.13025 6.51416H4.793V18.0428H1.13025V6.51416Z" fill="white"/>
<path d="M13.7833 6.24316C11.8074 6.24316 10.4824 8.18566 10.4824 8.18566V6.51374H6.81958V18.0424H10.4822V11.6043C10.4822 11.2597 10.5061 10.9156 10.6029 10.6691C10.8677 9.98087 11.4702 9.26787 12.4821 9.26787C13.8075 9.26787 14.3376 10.3251 14.3376 11.8749V18.0424H18V11.4321C18 7.89097 16.193 6.24316 13.7833 6.24316Z" fill="white"/>
</svg>
