<svg width="124" height="48" viewBox="0 0 124 48" fill="none" xmlns="http://www.w3.org/2000/svg">
<g id="logo">
<path id="curve" d="M20.0396 23.6963C20.0396 23.7596 20.0396 23.8203 20.0396 23.8811C20.0396 23.9418 20.0396 23.9828 20.0297 24.0336C20.0291 24.0406 20.0291 24.0477 20.0297 24.0547L20.0148 24.2084C20.0148 24.2456 20.0074 24.2828 20.0024 24.32C20.0031 24.325 20.0031 24.33 20.0024 24.3349C20.0024 24.3572 20.0024 24.3796 19.995 24.4019C19.995 24.4453 19.9838 24.4874 19.9764 24.5259C19.9689 24.5742 19.9602 24.6214 19.9516 24.6697C19.9429 24.7181 19.9305 24.7863 19.9193 24.8458L19.8896 24.981C19.8672 25.0789 19.8412 25.1781 19.8139 25.2748L19.799 25.3306C19.7866 25.374 19.7742 25.4162 19.7606 25.4546C19.747 25.4931 19.737 25.529 19.7246 25.5662C19.7147 25.5997 19.7023 25.632 19.6924 25.663L19.6564 25.7634L19.592 25.9184C19.5734 25.9668 19.5535 26.0126 19.5337 26.061C19.5138 26.1094 19.5002 26.1379 19.4828 26.1763C19.4655 26.2148 19.463 26.2234 19.4518 26.247C19.3692 26.428 19.2778 26.6045 19.1778 26.7765C19.1542 26.8174 19.1294 26.8596 19.1034 26.9005C19.0774 26.9414 19.0612 26.9699 19.0389 27.0059L19.0116 27.048C18.9868 27.0865 18.962 27.1262 18.936 27.1634C18.91 27.2006 18.8901 27.2316 18.8653 27.265L18.8356 27.306C18.8095 27.3432 18.7835 27.3804 18.7562 27.4163C18.7078 27.4808 18.6582 27.5403 18.6074 27.6073C18.5892 27.6304 18.5694 27.654 18.5479 27.678C18.4921 27.7449 18.4363 27.8094 18.378 27.8739L18.3482 27.9061L18.259 28.0028C18.1821 28.0822 18.104 28.1603 18.0234 28.2372L17.9514 28.3042C17.9056 28.3463 17.8572 28.3885 17.8101 28.4282C17.763 28.4678 17.7493 28.4815 17.7183 28.5063C17.6687 28.5484 17.6204 28.5869 17.5708 28.6303C17.5212 28.6737 17.4889 28.6935 17.4468 28.7233C17.4046 28.753 17.3488 28.7964 17.3004 28.8299L17.1926 28.9043C17.1578 28.9291 17.1219 28.9527 17.0859 28.9762C16.9958 29.0341 16.9041 29.0899 16.8106 29.1436L16.6978 29.2081L16.6296 29.2453C16.5651 29.28 16.4982 29.3135 16.4312 29.347C16.4052 29.3606 16.3804 29.3718 16.3531 29.3842L16.2601 29.4288C16.2365 29.4388 16.2142 29.4499 16.1906 29.4586C16.11 29.4958 16.0282 29.5293 15.9426 29.5615C15.8955 29.5814 15.8472 29.5987 15.7988 29.6161L15.6748 29.6595L15.6116 29.6806L15.4962 29.7178L15.3722 29.755H15.3611L15.2991 29.7723L15.185 29.8033L15.0982 29.8244L15.066 29.8318L14.9866 29.8504C14.9097 29.8678 14.8316 29.8839 14.7522 29.8988L14.6778 29.9112C14.5985 29.9261 14.5179 29.9372 14.4373 29.9484L14.343 29.9608L14.219 29.9744L14.0826 29.9856H14.0182C13.9363 29.993 13.8545 29.9968 13.7702 29.998H13.7082H13.418H13.356C13.2729 29.998 13.1911 29.998 13.108 29.9856H13.0435L12.9096 29.9744L12.7856 29.9608L12.6914 29.9484C12.6095 29.9372 12.5302 29.9261 12.4508 29.9112L12.3764 29.8988C12.2937 29.8839 12.2156 29.8678 12.142 29.8504C12.1148 29.8442 12.0887 29.8393 12.0627 29.8318C12.0518 29.8301 12.041 29.8276 12.0304 29.8244L11.9436 29.8033L11.8296 29.7723L11.7676 29.755L11.78 29.7624C11.7403 29.75 11.6994 29.7388 11.656 29.7252L11.5406 29.688L11.4774 29.6669L11.3534 29.6235C11.305 29.6062 11.2579 29.5888 11.2096 29.569C11.1265 29.5367 11.0446 29.5032 10.9616 29.466L10.8934 29.4363L10.8004 29.3916C10.7731 29.3792 10.747 29.3681 10.7222 29.3544C10.6553 29.321 10.5883 29.2875 10.5238 29.2528L10.4556 29.2156L10.3428 29.1511C10.2502 29.0973 10.1585 29.0415 10.0675 28.9837C10.0303 28.9601 9.9956 28.9366 9.96088 28.9118C9.92616 28.887 9.88772 28.8634 9.853 28.8374C9.81828 28.8113 9.75504 28.7679 9.70668 28.7307C9.65832 28.6935 9.62484 28.67 9.58268 28.6377C9.54052 28.6055 9.48348 28.5596 9.43512 28.5137C9.38676 28.4678 9.37312 28.4629 9.34336 28.4356C9.3136 28.4083 9.24788 28.3525 9.20076 28.3116C9.17844 28.288 9.15364 28.267 9.13008 28.2446C9.04948 28.1678 8.97012 28.0896 8.89448 28.0103L8.8052 27.9136L8.77544 27.8813C8.71716 27.8168 8.66012 27.7573 8.60432 27.6854L8.54604 27.6147C8.49396 27.5515 8.4456 27.4907 8.39724 27.4238L8.31664 27.3134L8.28812 27.2725C8.26332 27.239 8.241 27.2043 8.21744 27.1708C8.19388 27.1373 8.1666 27.0939 8.14056 27.0555C8.13188 27.0406 8.12196 27.027 8.11328 27.0133C8.0922 26.9774 8.07112 26.9439 8.0488 26.9079L7.97564 26.7839C7.87644 26.612 7.7851 26.4355 7.7016 26.2544L7.66936 26.1838L7.61852 26.0684C7.59992 26.0201 7.58008 25.9742 7.56272 25.9258C7.54536 25.8775 7.52552 25.8353 7.5094 25.7894C7.49328 25.7436 7.4846 25.7225 7.47468 25.689C7.46476 25.6555 7.45112 25.6258 7.4412 25.5923C7.4288 25.5551 7.41516 25.5179 7.40524 25.4807C7.39532 25.4435 7.37796 25.3964 7.3668 25.3567C7.3668 25.3381 7.35564 25.3195 7.35068 25.3009C7.3234 25.2042 7.2986 25.105 7.27628 25.007L7.24652 24.8718C7.23536 24.8123 7.22296 24.754 7.21304 24.6958C7.20312 24.6375 7.19692 24.6003 7.18948 24.5519C7.18204 24.5073 7.17584 24.4651 7.17088 24.4279C7.17088 24.4056 7.17088 24.3833 7.1622 24.361C7.16154 24.356 7.16154 24.351 7.1622 24.3461C7.1622 24.3089 7.15228 24.2717 7.14856 24.2345C7.14484 24.1973 7.13988 24.1328 7.13492 24.0807C7.13552 24.0737 7.13552 24.0666 7.13492 24.0596C7.13492 24.0088 7.12748 23.958 7.125 23.9071C7.12252 23.8563 7.125 23.7831 7.125 23.7224C7.125 23.6616 7.125 23.6232 7.125 23.5736V17.0822H0.648483V23.5475C0.648483 23.617 0.648483 23.6864 0.648483 23.7558C0.648483 23.8253 0.648483 23.9146 0.648483 23.9939V24.1588C0.648483 24.1663 0.648483 24.1737 0.648483 24.1824C0.648483 24.1911 0.648483 24.2283 0.648483 24.2518C0.648483 24.3138 0.648483 24.3758 0.659643 24.4366C0.670803 24.4974 0.670803 24.5842 0.677003 24.6573C0.683203 24.7305 0.688163 24.7813 0.693123 24.8396C0.701803 24.9264 0.711723 25.0144 0.722883 25.1025C0.734043 25.1905 0.739003 25.2414 0.748923 25.3108C0.758843 25.3802 0.767523 25.441 0.777443 25.5055C0.778042 25.5125 0.778042 25.5195 0.777443 25.5266C0.787363 25.5886 0.797283 25.6506 0.809683 25.715C0.823323 25.8105 0.841923 25.9048 0.860523 25.999C0.870443 26.0548 0.881603 26.1118 0.892763 26.1664C0.903923 26.221 0.921283 26.3065 0.938643 26.3772C0.952283 26.4454 0.968403 26.5136 0.984523 26.5806C1.00188 26.65 1.018 26.7194 1.03536 26.7876L1.11596 27.0133C1.13456 27.079 1.15192 27.1373 1.17052 27.208C1.17397 27.2165 1.17687 27.2252 1.1792 27.234C1.19656 27.2936 1.21516 27.3518 1.23376 27.4114C1.25236 27.4709 1.27592 27.5465 1.29948 27.6147C1.32304 27.6829 1.3466 27.7598 1.37388 27.833C1.40116 27.9061 1.41604 27.957 1.43836 28.014C1.46068 28.071 1.48424 28.138 1.5078 28.1975V28.2124C1.53384 28.2781 1.55988 28.3438 1.58716 28.4096C1.638 28.5336 1.69256 28.6576 1.74836 28.789C1.7505 28.7957 1.75298 28.8024 1.7558 28.8088C1.78308 28.8684 1.81036 28.9328 1.83888 28.9886C1.8674 29.0444 1.89964 29.1188 1.93064 29.1833L2.00752 29.3383C2.0472 29.4189 2.08936 29.4983 2.13152 29.5789C2.15632 29.6272 2.1836 29.6768 2.21088 29.7252C2.2456 29.7922 2.28156 29.8579 2.31876 29.9224L2.41548 30.0898C2.4254 30.1059 2.43532 30.1232 2.44648 30.1394L2.53204 30.282C2.57048 30.3452 2.61016 30.406 2.65604 30.4729C2.70192 30.5399 2.72052 30.5746 2.754 30.6254C2.75635 30.6286 2.75842 30.6319 2.7602 30.6354C2.79492 30.6874 2.8284 30.7383 2.86436 30.7904C2.93504 30.897 3.0082 31.0012 3.08384 31.1041C3.1074 31.1376 3.13096 31.1698 3.15576 31.202C3.2252 31.2988 3.2996 31.3942 3.37276 31.4897C3.41368 31.543 3.4546 31.5939 3.49676 31.6447C3.53892 31.6956 3.56496 31.7315 3.60092 31.7687C3.63688 31.8059 3.65672 31.8369 3.68524 31.8704C3.74848 31.946 3.80924 32.0204 3.87744 32.0936C3.94564 32.1668 4.00764 32.2387 4.07336 32.3106C4.12048 32.3614 4.16636 32.4098 4.21472 32.4594C4.22944 32.4768 4.24517 32.4934 4.26184 32.509C4.2978 32.5462 4.33376 32.5846 4.3722 32.6218L4.45528 32.7074C4.56068 32.8103 4.66608 32.9132 4.77396 33.0137L4.92276 33.1501C4.95996 33.1836 4.99716 33.217 5.0356 33.2493C5.07404 33.2815 5.10008 33.3063 5.13232 33.3336C5.16456 33.3609 5.19184 33.3857 5.22284 33.4117C5.3332 33.5047 5.44604 33.5965 5.55888 33.687C5.60228 33.7205 5.64444 33.7552 5.68288 33.7874L5.73992 33.8321L5.83044 33.9003L5.95444 33.9933C6.09828 34.0999 6.24584 34.2016 6.39464 34.2996L6.50748 34.3752C6.54096 34.3975 6.57444 34.4198 6.60792 34.4397C6.6414 34.4595 6.67116 34.4806 6.7034 34.5004C6.73564 34.5203 6.7654 34.5401 6.79764 34.56L6.90552 34.6257L7.10268 34.741C7.19196 34.7943 7.28248 34.8452 7.37548 34.8948C7.40896 34.9146 7.44492 34.9332 7.48088 34.9518C7.54784 34.989 7.61604 35.0237 7.683 35.0584L7.86776 35.1514L8.04136 35.2345C8.09468 35.2606 8.148 35.2854 8.2038 35.3089L8.3836 35.3908L8.39724 35.397L8.57704 35.4738H8.58696C8.644 35.4986 8.70352 35.5222 8.7618 35.5458L8.7866 35.5544C8.83744 35.5768 8.892 35.5966 8.94408 35.6164L9.00608 35.64L9.1152 35.6797C9.16728 35.7008 9.2206 35.7194 9.27392 35.738H9.28012C9.34336 35.7615 9.40412 35.7838 9.47108 35.8037L9.50332 35.8136L9.62732 35.8558L9.72652 35.8868L9.8592 35.9264L9.92244 35.9463L10.0985 35.9959H10.1246C10.1928 36.0157 10.2634 36.0343 10.3329 36.0517L10.5276 36.1013C10.592 36.1162 10.6516 36.1323 10.7235 36.1459L10.9194 36.1893L11.036 36.2129L11.1959 36.2426C11.2517 36.255 11.3088 36.2637 11.367 36.2736L11.4489 36.2873L11.594 36.3108L11.656 36.3344C11.7043 36.3418 11.7527 36.3505 11.8023 36.3555L11.8965 36.3691L11.966 36.3778L12.1371 36.3976C12.1954 36.4038 12.2536 36.4113 12.3119 36.4162C12.3702 36.4212 12.4297 36.4274 12.488 36.4311L12.6418 36.4435C12.6765 36.4435 12.7124 36.4435 12.7484 36.451L12.9232 36.4609C12.9716 36.4609 13.0212 36.4671 13.0708 36.4671C13.2394 36.4745 13.4093 36.477 13.5817 36.477C13.754 36.477 13.9227 36.477 14.0926 36.4671C14.1422 36.4671 14.1905 36.4671 14.2401 36.4609L14.4137 36.451C14.4497 36.451 14.4869 36.451 14.5216 36.4435L14.6741 36.4311C14.7336 36.4311 14.7981 36.4224 14.8514 36.4162L15.0263 36.3976L15.1974 36.3778L15.2668 36.3691L15.3611 36.3555C15.4094 36.3555 15.459 36.3418 15.5074 36.3344L15.552 36.3282L15.6996 36.3046L15.7802 36.291C15.8385 36.2811 15.8943 36.2724 15.9513 36.26L16.1113 36.2302L16.2266 36.2067L16.4238 36.1633C16.4895 36.1496 16.5552 36.1335 16.6197 36.1186L16.8144 36.069L17.0227 36.0132H17.0487L17.2248 35.9636L17.288 35.9438L17.4207 35.9041L17.5187 35.8731L17.6427 35.831L17.6737 35.821C17.7369 35.8012 17.7977 35.7789 17.8659 35.7553C17.9204 35.7367 17.9725 35.7181 18.0258 35.697L18.135 35.6574L18.1957 35.6338C18.2503 35.614 18.3024 35.5941 18.3544 35.5718L18.3792 35.5631L18.5541 35.4912H18.564L18.7438 35.4143L18.7562 35.4081L18.9385 35.3263C18.9918 35.3027 19.0464 35.2779 19.0997 35.2519L19.2733 35.1688L19.458 35.0758C19.5262 35.0411 19.592 35.0064 19.6602 34.9692L19.7656 34.9121C19.8573 34.8625 19.9491 34.8117 20.0384 34.7584V23.5475C20.0421 23.5984 20.0421 23.6467 20.0396 23.6963Z" fill="#3984F5"/>
<g id="straight">
<path id="Vector" d="M26.5062 39.6303V7.35063C27.0817 6.72325 27.4622 5.94194 27.6012 5.10202C27.7402 4.26209 27.6317 3.39987 27.2891 2.62053C26.9464 1.84119 26.3843 1.17843 25.6714 0.713105C24.9584 0.247778 24.1255 0 23.2742 0C22.4228 0 21.5899 0.247778 20.8769 0.713105C20.164 1.17843 19.6019 1.84119 19.2592 2.62053C18.9166 3.39987 18.8081 4.26209 18.9471 5.10202C19.0861 5.94194 19.4666 6.72325 20.0421 7.35063V39.6303C19.4472 40.2614 19.05 41.0529 18.8997 41.9071C18.7494 42.7613 18.8524 43.6408 19.1961 44.4371C19.5398 45.2334 20.1091 45.9117 20.8338 46.3882C21.5585 46.8647 22.4068 47.1187 23.2742 47.1187C24.1415 47.1187 24.9898 46.8647 25.7145 46.3882C26.4392 45.9117 27.0085 45.2334 27.3522 44.4371C27.6959 43.6408 27.7989 42.7613 27.6486 41.9071C27.4983 41.0529 27.1011 40.2614 26.5062 39.6303ZM23.2748 2.92631C23.5639 2.92631 23.8466 3.01205 24.087 3.17269C24.3274 3.33333 24.5148 3.56166 24.6255 3.8288C24.7361 4.09594 24.7651 4.38989 24.7086 4.67348C24.6522 4.95708 24.513 5.21757 24.3085 5.42203C24.1041 5.62649 23.8436 5.76573 23.56 5.82214C23.2764 5.87855 22.9824 5.8496 22.7153 5.73894C22.4482 5.62829 22.2198 5.44091 22.0592 5.20049C21.8986 4.96007 21.8128 4.67742 21.8128 4.38827C21.8127 4.19623 21.8504 4.00605 21.9238 3.82861C21.9972 3.65116 22.1049 3.48993 22.2406 3.35414C22.3764 3.21835 22.5377 3.11067 22.7151 3.03726C22.8926 2.96385 23.0827 2.92614 23.2748 2.92631ZM23.2748 44.1538C22.9818 44.1541 22.6954 44.0674 22.4518 43.9048C22.2081 43.7422 22.0181 43.511 21.9059 43.2404C21.7937 42.9698 21.7643 42.672 21.8214 42.3847C21.8785 42.0974 22.0195 41.8335 22.2266 41.6264C22.4338 41.4192 22.6977 41.2782 22.985 41.2211C23.2723 41.164 23.5701 41.1934 23.8407 41.3056C24.1113 41.4179 24.3425 41.6078 24.5051 41.8515C24.6677 42.0952 24.7543 42.3816 24.7541 42.6745C24.7541 43.0668 24.5982 43.4431 24.3208 43.7205C24.0434 43.998 23.6671 44.1538 23.2748 44.1538Z" fill="#5959FF"/>
<path id="Vector_2" d="M7.7574 15.1428L7.7574 7.38538L-3.95775e-05 7.38538L-3.95775e-05 15.1428H7.7574Z" fill="#5959FF"/>
</g>
<g id="text">
<path id="Vector_3" d="M41.4928 12.7992V23.426C41.4928 24.9198 41.8582 26.0283 42.589 26.7517C43.3198 27.475 44.3341 27.8367 45.632 27.8367C46.9183 27.8367 47.9264 27.475 48.6563 26.7517C49.3863 26.0283 49.7517 24.9198 49.7525 23.426V12.7992H51.956V23.4024C51.956 24.7995 51.6749 25.9763 51.1128 26.9327C50.5847 27.8561 49.791 28.5993 48.8349 29.0655C47.825 29.5256 46.7281 29.7637 45.6183 29.7637C44.5085 29.7637 43.4117 29.5256 42.4018 29.0655C41.4475 28.6012 40.6573 27.8572 40.1363 26.9327C39.5824 25.9771 39.3055 24.8003 39.3055 23.4024V12.7992H41.4928Z" fill="#5959FF"/>
<path id="Vector_4" d="M59.7456 16.932C60.6054 16.4261 61.6056 16.1732 62.7464 16.1732C63.8675 16.1598 64.9711 16.4513 65.9394 17.0164C66.897 17.582 67.6774 18.4041 68.1925 19.3897C68.7381 20.4107 69.0109 21.5957 69.0109 22.9448C69.0109 24.2782 68.7381 25.467 68.1925 26.511C67.6848 27.5165 66.9049 28.3591 65.9415 28.9427C64.9782 29.5264 63.8702 29.8275 62.7439 29.8119C61.7015 29.8332 60.6729 29.5709 59.7679 29.053C58.963 28.5993 58.2877 27.947 57.8063 27.1583V35.8582H55.6139V16.3902H57.8063V18.8243C58.2753 18.0341 58.9442 17.3815 59.7456 16.932ZM66.1676 20.3383C65.7977 19.6318 65.2332 19.0462 64.5407 18.6507C63.8531 18.2644 63.0762 18.0652 62.2876 18.0728C61.5043 18.0667 60.7336 18.2705 60.0556 18.6631C59.3607 19.0699 58.793 19.6625 58.4163 20.3743C57.9949 21.1715 57.7836 22.0631 57.8025 22.9646C57.782 23.8743 57.9932 24.7743 58.4163 25.5798C58.7927 26.2915 59.3605 26.8837 60.0556 27.2898C60.7333 27.6829 61.5042 27.8867 62.2876 27.88C63.0779 27.8882 63.8559 27.6844 64.5407 27.2898C65.2342 26.8856 65.7984 26.2925 66.1676 25.5798C66.5693 24.8358 66.7702 23.9562 66.7702 22.9411C66.7702 21.9499 66.5693 21.0823 66.1676 20.3383Z" fill="#5959FF"/>
<path id="Vector_5" d="M74.5773 18.1969V25.9804C74.5773 26.6227 74.7141 27.0774 74.9878 27.3444C75.2614 27.6114 75.7351 27.7441 76.4088 27.7425H78.0208V29.6025H76.0479C74.827 29.6025 73.911 29.3214 73.3001 28.7593C72.6892 28.1971 72.3842 27.2733 72.385 25.9879V18.1969H70.68V16.3903H72.3912V13.0646H74.5835V16.3903H78.0295V18.1969H74.5773Z" fill="#5959FF"/>
<path id="Vector_6" d="M80.7464 13.8111C80.5332 13.6032 80.3873 13.3362 80.3276 13.0446C80.2678 12.7529 80.2968 12.45 80.411 12.1751C80.5252 11.9001 80.7192 11.6658 80.968 11.5023C81.2168 11.3388 81.5089 11.2536 81.8066 11.2579C81.9982 11.2546 82.1885 11.2914 82.3651 11.3659C82.5417 11.4404 82.7007 11.551 82.8321 11.6907C83.1028 11.9773 83.2537 12.3566 83.2537 12.7509C83.2537 13.1451 83.1028 13.5245 82.8321 13.8111C82.7011 13.9509 82.5423 14.0617 82.3659 14.1365C82.1895 14.2112 81.9994 14.2482 81.8078 14.2451C81.6106 14.2494 81.4145 14.2132 81.2319 14.1385C81.0493 14.0638 80.884 13.9524 80.7464 13.8111ZM82.8668 16.3903V29.595H80.6744V16.3903H82.8668Z" fill="#5959FF"/>
<path id="Vector_7" d="M105.229 16.7871C106.041 17.2215 106.705 17.8886 107.136 18.7029C107.601 19.5552 107.834 20.5914 107.834 21.8116V29.5951H105.662V22.1253C105.662 20.8084 105.336 19.8003 104.686 19.1009C104.035 18.4016 103.157 18.0523 102.052 18.0531C100.91 18.0531 100 18.4185 99.324 19.1493C98.6478 19.8801 98.3105 20.9378 98.3122 22.3225V29.6H96.1434V22.1253C96.1434 20.8084 95.8181 19.8003 95.1675 19.1009C94.517 18.4016 93.6374 18.0523 92.5288 18.0531C91.388 18.0531 90.4787 18.4185 89.8008 19.1493C89.123 19.8801 88.7873 20.9378 88.7939 22.3225V29.6H86.6016V16.3903H88.7939V18.2937C89.2184 17.6123 89.8231 17.0617 90.5411 16.7028C91.2933 16.3295 92.1232 16.14 92.9628 16.1497C93.992 16.1283 95.0078 16.3853 95.9029 16.8937C96.7593 17.3976 97.4276 18.1674 97.8063 19.0861C98.1564 18.1783 98.8014 17.4145 99.6377 16.9173C100.496 16.4021 101.48 16.1355 102.481 16.1473C103.436 16.1305 104.38 16.3503 105.229 16.7871Z" fill="#5959FF"/>
<path id="Vector_8" d="M111.421 19.3897C111.936 18.4036 112.716 17.5814 113.674 17.0164C114.643 16.4511 115.746 16.1597 116.867 16.1732C118.025 16.1732 119.029 16.4212 119.879 16.9172C120.673 17.3587 121.331 18.0087 121.783 18.797V16.3902H124V29.5949H121.783V27.1373C121.32 27.938 120.65 28.5996 119.843 29.0531C118.984 29.559 117.983 29.8119 116.843 29.8119C115.722 29.8263 114.62 29.5256 113.662 28.9439C112.705 28.3558 111.929 27.5136 111.421 26.5111C110.875 25.467 110.604 24.2774 110.608 22.9423C110.608 21.594 110.879 20.4098 111.421 19.3897ZM121.18 20.3656C120.808 19.6584 120.245 19.0698 119.555 18.6668C118.868 18.2819 118.095 18.0788 117.309 18.0766C116.522 18.0744 115.748 18.2733 115.06 18.6544C114.374 19.0534 113.815 19.6385 113.448 20.3421C113.042 21.0836 112.84 21.9503 112.84 22.9423C112.84 23.9542 113.041 24.8338 113.443 25.5811C113.809 26.2909 114.368 26.8834 115.055 27.291C115.737 27.6884 116.514 27.8933 117.304 27.8837C118.094 27.8916 118.872 27.6878 119.557 27.2935C120.25 26.8889 120.814 26.2959 121.183 25.5835C121.599 24.7758 121.806 23.8767 121.785 22.9684C121.784 21.9731 121.582 21.1055 121.18 20.3656Z" fill="#5959FF"/>
</g>
</g>
</svg>
