<svg width="60" height="60" viewBox="0 0 60 60" fill="none" xmlns="http://www.w3.org/2000/svg">
<path d="M36.3338 40.6044H34.6255V32.9172C34.6255 32.2376 34.8955 31.5858 35.376 31.1052C35.8565 30.6247 36.5083 30.3547 37.1879 30.3547C37.8675 30.3547 38.5193 30.6247 38.9998 31.1052C39.4803 31.5858 39.7503 32.2376 39.7503 32.9172V38.042H38.042V32.9172C38.042 32.6906 37.9521 32.4734 37.7919 32.3132C37.6317 32.153 37.4144 32.063 37.1879 32.063C36.9614 32.063 36.7441 32.153 36.5839 32.3132C36.4238 32.4734 36.3338 32.6906 36.3338 32.9172V40.6044Z" fill="#5051DB"/>
<path d="M43.1668 38.042H41.4585V31.2089C41.4585 30.9824 41.3686 30.7651 41.2084 30.6049C41.0482 30.4447 40.8309 30.3548 40.6044 30.3548C40.3779 30.3548 40.1606 30.4447 40.0004 30.6049C39.8403 30.7651 39.7503 30.9824 39.7503 31.2089V38.042H38.042V31.2089C38.042 30.5293 38.312 29.8775 38.7925 29.397C39.2731 28.9165 39.9248 28.6465 40.6044 28.6465C41.284 28.6465 41.9358 28.9165 42.4163 29.397C42.8969 29.8775 43.1668 30.5293 43.1668 31.2089V38.042Z" fill="#5051DB"/>
<path d="M46.5834 38.042H44.8752V32.9172C44.8752 32.6906 44.7852 32.4734 44.625 32.3132C44.4648 32.153 44.2476 32.063 44.021 32.063C43.7945 32.063 43.5772 32.153 43.4171 32.3132C43.2569 32.4734 43.1669 32.6906 43.1669 32.9172V38.042H41.4586V32.9172C41.4586 32.2376 41.7286 31.5858 42.2091 31.1052C42.6897 30.6247 43.3414 30.3547 44.021 30.3547C44.7006 30.3547 45.3524 30.6247 45.8329 31.1052C46.3135 31.5858 46.5834 32.2376 46.5834 32.9172V38.042Z" fill="#5051DB"/>
<path d="M38.0421 49.1459H36.3338V47.7878L32.3108 43.7648C32.153 43.6057 32.0641 43.391 32.0631 43.1669V38.8962C32.0502 38.444 32.1297 37.9939 32.2968 37.5735C32.4639 37.1532 32.7151 36.7713 33.0349 36.4514C33.3548 36.1316 33.7366 35.8804 34.157 35.7133C34.5774 35.5462 35.0275 35.4667 35.4797 35.4796V37.1879C35.2514 37.1728 35.0226 37.2067 34.8085 37.2872C34.5944 37.3677 34.4 37.493 34.2382 37.6547C34.0765 37.8165 33.9512 38.0109 33.8707 38.225C33.7902 38.4391 33.7563 38.668 33.7714 38.8962V42.8167L37.7944 46.8397C37.9522 46.9988 38.0412 47.2135 38.0421 47.4376V49.1459Z" fill="#5051DB"/>
<path d="M48.2917 49.1459H46.5834V47.4376C46.5827 47.3252 46.6043 47.2138 46.6468 47.1097C46.6893 47.0056 46.7519 46.911 46.8311 46.8312L48.2917 45.3791V33.7714C48.2917 33.5449 48.2017 33.3276 48.0415 33.1674C47.8813 33.0072 47.6641 32.9173 47.4375 32.9173C47.211 32.9173 46.9938 33.0072 46.8336 33.1674C46.6734 33.3276 46.5834 33.5449 46.5834 33.7714V38.0421H44.8751V33.7714C44.8751 33.0918 45.1451 32.44 45.6256 31.9595C46.1062 31.479 46.7579 31.209 47.4375 31.209C48.1171 31.209 48.7689 31.479 49.2494 31.9595C49.73 32.44 50 33.0918 50 33.7714V45.7293C50.0006 45.8417 49.9791 45.9532 49.9365 46.0572C49.894 46.1613 49.8314 46.256 49.7523 46.3358L48.2917 47.7878V49.1459Z" fill="#5051DB"/>
<path d="M14.1261 28.6466C13.4465 28.6466 12.7948 28.3767 12.3142 27.8961C11.8337 27.4156 11.5637 26.7638 11.5637 26.0842V18.397H13.272V26.0842C13.272 26.3107 13.362 26.528 13.5222 26.6882C13.6824 26.8484 13.8996 26.9384 14.1261 26.9384C14.3527 26.9384 14.5699 26.8484 14.7301 26.6882C14.8903 26.528 14.9803 26.3107 14.9803 26.0842V20.9594H16.6885V26.0842C16.6885 26.7638 16.4186 27.4156 15.938 27.8961C15.4575 28.3767 14.8057 28.6466 14.1261 28.6466Z" fill="#5051DB"/>
<path d="M17.5428 30.3547C16.8632 30.3547 16.2114 30.0848 15.7309 29.6042C15.2503 29.1237 14.9803 28.4719 14.9803 27.7923V20.9592H16.6886V27.7923C16.6886 28.0189 16.7786 28.2361 16.9388 28.3963C17.099 28.5565 17.3162 28.6465 17.5428 28.6465C17.7693 28.6465 17.9865 28.5565 18.1467 28.3963C18.3069 28.2361 18.3969 28.0189 18.3969 27.7923V20.9592H20.1052V27.7923C20.1052 28.4719 19.8352 29.1237 19.3547 29.6042C18.8741 30.0848 18.2224 30.3547 17.5428 30.3547Z" fill="#5051DB"/>
<path d="M20.9593 28.6465C20.2797 28.6465 19.6279 28.3765 19.1474 27.896C18.6668 27.4154 18.3969 26.7637 18.3969 26.0841V20.9592H20.1051V26.0841C20.1051 26.3106 20.1951 26.5278 20.3553 26.688C20.5155 26.8482 20.7327 26.9382 20.9593 26.9382C21.1858 26.9382 21.403 26.8482 21.5632 26.688C21.7234 26.5278 21.8134 26.3106 21.8134 26.0841V20.9592H23.5217V26.0841C23.5217 26.7637 23.2517 27.4154 22.7712 27.896C22.2906 28.3765 21.6389 28.6465 20.9593 28.6465Z" fill="#5051DB"/>
<path d="M12.4179 23.5217C11.9657 23.5347 11.5156 23.4552 11.0953 23.2881C10.6749 23.1209 10.293 22.8698 9.97317 22.5499C9.65329 22.23 9.4021 21.8482 9.23499 21.4278C9.06789 21.0074 8.98839 20.5573 9.00137 20.1051V15.8344C9.00072 15.722 9.02226 15.6106 9.06477 15.5065C9.10728 15.4025 9.16991 15.3078 9.24907 15.228L13.2721 11.2135V9.85547H14.9803V11.5637C14.981 11.6762 14.9594 11.7876 14.9169 11.8917C14.8744 11.9957 14.8118 12.0904 14.7326 12.1702L10.7096 16.1846V20.1051C10.6945 20.3334 10.7284 20.5622 10.8089 20.7763C10.8894 20.9904 11.0147 21.1848 11.1765 21.3466C11.3382 21.5083 11.5326 21.6336 11.7467 21.7142C11.9608 21.7947 12.1897 21.8285 12.4179 21.8134V23.5217Z" fill="#5051DB"/>
<path d="M24.3759 27.7924C23.6963 27.7924 23.0445 27.5224 22.564 27.0419C22.0834 26.5613 21.8135 25.9095 21.8135 25.23V20.9593H23.5218V25.23C23.5218 25.4565 23.6117 25.6737 23.7719 25.8339C23.9321 25.9941 24.1494 26.0841 24.3759 26.0841C24.6024 26.0841 24.8197 25.9941 24.9799 25.8339C25.14 25.6737 25.23 25.4565 25.23 25.23V13.6222L23.7695 12.1702C23.6903 12.0904 23.6277 11.9957 23.5852 11.8917C23.5426 11.7876 23.5211 11.6762 23.5218 11.5637V9.85547H25.23V11.2135L26.6906 12.6741C26.8484 12.8332 26.9374 13.0479 26.9383 13.272V25.23C26.9383 25.9095 26.6683 26.5613 26.1878 27.0419C25.7072 27.5224 25.0555 27.7924 24.3759 27.7924Z" fill="#5051DB"/>
<path d="M26.0841 39.7503H20.9593V38.042H26.0841C26.3106 38.042 26.5279 37.9521 26.6881 37.7919C26.8482 37.6317 26.9382 37.4144 26.9382 37.1879C26.9382 36.9614 26.8482 36.7441 26.6881 36.5839C26.5279 36.4238 26.3106 36.3338 26.0841 36.3338H18.3969V34.6255H26.0841C26.7637 34.6255 27.4154 34.8955 27.896 35.376C28.3765 35.8565 28.6465 36.5083 28.6465 37.1879C28.6465 37.8675 28.3765 38.5193 27.896 38.9998C27.4154 39.4803 26.7637 39.7503 26.0841 39.7503Z" fill="#5051DB"/>
<path d="M27.7923 43.1668H20.9592V41.4585H27.7923C28.0189 41.4585 28.2361 41.3686 28.3963 41.2084C28.5565 41.0482 28.6465 40.8309 28.6465 40.6044C28.6465 40.3779 28.5565 40.1606 28.3963 40.0004C28.2361 39.8403 28.0189 39.7503 27.7923 39.7503H20.9592V38.042H27.7923C28.4719 38.042 29.1237 38.312 29.6042 38.7925C30.0848 39.2731 30.3547 39.9248 30.3547 40.6044C30.3547 41.284 30.0848 41.9358 29.6042 42.4163C29.1237 42.8969 28.4719 43.1668 27.7923 43.1668Z" fill="#5051DB"/>
<path d="M26.0841 46.5833H20.9592V44.875H26.0841C26.3106 44.875 26.5278 44.7851 26.688 44.6249C26.8482 44.4647 26.9382 44.2474 26.9382 44.0209C26.9382 43.7944 26.8482 43.5771 26.688 43.4169C26.5278 43.2568 26.3106 43.1668 26.0841 43.1668H20.9592V41.4585H26.0841C26.7637 41.4585 27.4154 41.7285 27.896 42.209C28.3765 42.6896 28.6465 43.3413 28.6465 44.0209C28.6465 44.7005 28.3765 45.3523 27.896 45.8328C27.4154 46.3134 26.7637 46.5833 26.0841 46.5833Z" fill="#5051DB"/>
<path d="M11.5637 38.0421H9.85547V36.3338H11.2135L15.2365 32.3108C15.3956 32.153 15.6104 32.0641 15.8344 32.0631H20.1051C20.5573 32.0502 21.0074 32.1297 21.4278 32.2968C21.8482 32.4639 22.23 32.7151 22.5499 33.0349C22.8698 33.3548 23.1209 33.7366 23.2881 34.157C23.4552 34.5774 23.5347 35.0275 23.5217 35.4797H21.8134C21.8285 35.2514 21.7947 35.0226 21.7142 34.8085C21.6336 34.5944 21.5083 34.4 21.3466 34.2382C21.1848 34.0765 20.9904 33.9512 20.7763 33.8707C20.5622 33.7902 20.3334 33.7563 20.1051 33.7714H16.1846L12.1702 37.7944C12.0904 37.8736 11.9957 37.9362 11.8917 37.9787C11.7876 38.0212 11.6762 38.0428 11.5637 38.0421Z" fill="#5051DB"/>
<path d="M25.23 50.0001H13.272C13.1596 50.0007 13.0482 49.9792 12.9441 49.9367C12.84 49.8942 12.7454 49.8315 12.6656 49.7524L11.2135 48.2918H9.85547V46.5835H11.5637C11.6762 46.5829 11.7876 46.6044 11.8917 46.6469C11.9957 46.6894 12.0904 46.7521 12.1702 46.8312L13.6222 48.2918H25.23C25.4565 48.2918 25.6737 48.2018 25.8339 48.0416C25.9941 47.8814 26.0841 47.6642 26.0841 47.4377C26.0841 47.2111 25.9941 46.9939 25.8339 46.8337C25.6737 46.6735 25.4565 46.5835 25.23 46.5835H20.9593V44.8752H25.23C25.9095 44.8752 26.5613 45.1452 27.0419 45.6258C27.5224 46.1063 27.7924 46.7581 27.7924 47.4377C27.7924 48.1173 27.5224 48.769 27.0419 49.2496C26.5613 49.7301 25.9095 50.0001 25.23 50.0001Z" fill="#5051DB"/>
<path d="M38.0421 16.6885H32.9173C32.2377 16.6885 31.5859 16.4186 31.1054 15.938C30.6248 15.4575 30.3549 14.8057 30.3549 14.1261C30.3549 13.4465 30.6248 12.7948 31.1054 12.3142C31.5859 11.8337 32.2377 11.5637 32.9173 11.5637H40.6045V13.272H32.9173C32.6907 13.272 32.4735 13.362 32.3133 13.5222C32.1531 13.6824 32.0631 13.8996 32.0631 14.1261C32.0631 14.3527 32.1531 14.5699 32.3133 14.7301C32.4735 14.8903 32.6907 14.9803 32.9173 14.9803H38.0421V16.6885Z" fill="#5051DB"/>
<path d="M38.042 20.1051H31.2089C30.5293 20.1051 29.8775 19.8351 29.397 19.3545C28.9165 18.874 28.6465 18.2222 28.6465 17.5426C28.6465 16.863 28.9165 16.2113 29.397 15.7307C29.8775 15.2502 30.5293 14.9802 31.2089 14.9802H38.042V16.6885H31.2089C30.9824 16.6885 30.7651 16.7785 30.6049 16.9387C30.4447 17.0989 30.3548 17.3161 30.3548 17.5426C30.3548 17.7692 30.4447 17.9864 30.6049 18.1466C30.7651 18.3068 30.9824 18.3968 31.2089 18.3968H38.042V20.1051Z" fill="#5051DB"/>
<path d="M38.0421 23.5218H32.9173C32.2377 23.5218 31.5859 23.2518 31.1054 22.7713C30.6248 22.2907 30.3549 21.639 30.3549 20.9594C30.3549 20.2798 30.6248 19.628 31.1054 19.1475C31.5859 18.6669 32.2377 18.397 32.9173 18.397H38.0421V20.1052H32.9173C32.6907 20.1052 32.4735 20.1952 32.3133 20.3554C32.1531 20.5156 32.0631 20.7329 32.0631 20.9594C32.0631 21.1859 32.1531 21.4032 32.3133 21.5634C32.4735 21.7235 32.6907 21.8135 32.9173 21.8135H38.0421V23.5218Z" fill="#5051DB"/>
<path d="M49.1459 14.9803H47.4376C47.3252 14.981 47.2137 14.9594 47.1097 14.9169C47.0056 14.8744 46.9109 14.8118 46.8311 14.7326L42.8167 10.7096H38.8962C38.668 10.6945 38.4391 10.7284 38.225 10.8089C38.0109 10.8894 37.8165 11.0147 37.6547 11.1765C37.493 11.3382 37.3677 11.5326 37.2872 11.7467C37.2067 11.9608 37.1728 12.1897 37.1879 12.4179H35.4796C35.4667 11.9657 35.5462 11.5156 35.7133 11.0953C35.8804 10.6749 36.1316 10.293 36.4514 9.97317C36.7713 9.65329 37.1532 9.4021 37.5735 9.23499C37.9939 9.06789 38.444 8.98839 38.8962 9.00137H43.1669C43.2793 9.00072 43.3907 9.02226 43.4948 9.06477C43.5989 9.10728 43.6935 9.16991 43.7733 9.24907L47.7878 13.2721H49.1459V14.9803Z" fill="#5051DB"/>
<path d="M45.7293 26.9383H33.7714C33.0918 26.9383 32.44 26.6683 31.9595 26.1878C31.479 25.7072 31.209 25.0555 31.209 24.3759C31.209 23.6963 31.479 23.0445 31.9595 22.564C32.44 22.0834 33.0918 21.8135 33.7714 21.8135H38.0421V23.5218H33.7714C33.5449 23.5218 33.3276 23.6117 33.1674 23.7719C33.0072 23.9321 32.9173 24.1494 32.9173 24.3759C32.9173 24.6024 33.0072 24.8197 33.1674 24.9799C33.3276 25.14 33.5449 25.23 33.7714 25.23H45.3791L46.8397 23.7695C46.9988 23.6117 47.2135 23.5227 47.4376 23.5218H49.1459V25.23H47.7878L46.3272 26.6906C46.1681 26.8484 45.9534 26.9374 45.7293 26.9383Z" fill="#5051DB"/>
<circle cx="30" cy="30" r="30" fill="#5051DB" fill-opacity="0.04"/>
<circle cx="30" cy="30" r="29" stroke="#5051DB" stroke-opacity="0.08" stroke-width="2"/>
</svg>
