<svg width="18" height="15" viewBox="0 0 18 15" fill="none" xmlns="http://www.w3.org/2000/svg">
<path d="M17.6646 2.02236C17.0077 2.31051 16.3078 2.50151 15.578 2.59425C16.3287 2.14601 16.9017 1.44163 17.1711 0.592628C16.4712 1.00995 15.6983 1.30473 14.8747 1.46923C14.2101 0.761546 13.2628 0.323242 12.2294 0.323242C10.2245 0.323242 8.6104 1.9506 8.6104 3.94559C8.6104 4.23264 8.63469 4.50865 8.69431 4.77142C5.68359 4.62458 3.01955 3.1816 1.2299 0.983458C0.917457 1.52554 0.734186 2.14601 0.734186 2.81395C0.734186 4.06814 1.38005 5.17991 2.34277 5.82356C1.76094 5.81252 1.19015 5.64361 0.706585 5.37753C0.706585 5.38857 0.706585 5.40293 0.706585 5.41728C0.706585 7.17712 1.96188 8.63886 3.608 8.9756C3.31322 9.05619 2.99195 9.09483 2.65853 9.09483C2.42668 9.09483 2.19262 9.08158 1.97292 9.03301C2.44213 10.4672 3.77361 11.5215 5.3568 11.5557C4.12469 12.5196 2.56027 13.1003 0.866671 13.1003C0.569684 13.1003 0.284842 13.087 0 13.0506C1.60417 14.0851 3.50532 14.6757 5.55553 14.6757C12.2195 14.6757 15.8628 9.15555 15.8628 4.37065C15.8628 4.21056 15.8573 4.056 15.8496 3.90254C16.5683 3.39247 17.1722 2.75544 17.6646 2.02236Z" fill="white"/>
</svg>
