<svg width="60" height="60" viewBox="0 0 60 60" fill="none" xmlns="http://www.w3.org/2000/svg">
<circle cx="30" cy="30" r="30" fill="#5051DB" fill-opacity="0.04"/>
<circle cx="30" cy="30" r="29" stroke="#5051DB" stroke-opacity="0.08" stroke-width="2"/>
<path d="M11.4546 16.7155C11.4546 23.946 16.1701 29.8405 22.9291 31.0194C24.2651 32.7484 25.5226 34.2416 26.6229 35.3419L25.837 40.1361H25.6012C23.9508 40.1361 22.6933 41.4721 22.6933 43.044V46.4235H20.5713C20.0998 46.4235 19.7854 46.7378 19.7854 47.2094V50.5103C19.7854 50.9818 20.0998 51.2962 20.5713 51.2962H38.9619C39.4335 51.2962 39.7478 50.9818 39.7478 50.5103V47.2094C39.7478 46.7378 39.4335 46.4235 38.9619 46.4235H36.7613V43.044C36.7613 41.3935 35.4253 40.1361 33.8534 40.1361H33.6176L32.8317 35.3419C33.932 34.2416 35.1895 32.7484 36.5256 31.0194C43.2845 29.7619 48 23.946 48 16.7155C48 16.244 47.6857 15.9296 47.2141 15.9296H43.2845C43.4417 14.9079 43.5203 13.8862 43.5203 12.7859C43.5203 12.3144 43.2059 12 42.7344 12H16.7989C16.3273 12 16.0129 12.3144 16.0129 12.7859C16.0129 13.8862 16.0915 14.9079 16.2487 15.9296H12.3191C11.769 15.9296 11.4546 16.244 11.4546 16.7155ZM38.0974 49.7243H21.2786V47.9953H38.0974V49.7243ZM35.1895 43.044V46.4235H24.1866V43.044C24.1866 42.3367 24.8153 41.7079 25.5226 41.7079H33.8534C34.6393 41.7079 35.1895 42.3367 35.1895 43.044ZM27.3303 40.1361L27.8804 36.7566C28.5877 37.4639 29.0593 37.8569 29.1379 37.9355C29.2951 38.0927 29.4522 38.0927 29.6094 38.0927C29.7666 38.0927 30.0024 38.0141 30.081 37.9355C30.1596 37.8569 30.6311 37.4639 31.3385 36.7566L31.8886 40.1361H27.3303ZM46.3496 17.5015C46.0352 23.0815 42.813 27.4827 37.8616 29.0545C40.0622 25.8323 42.027 21.824 42.8915 17.5015H46.3496ZM41.8698 13.5718C41.3983 24.732 31.9672 34.0845 29.688 36.285C27.4088 34.0845 17.9778 24.732 17.5062 13.5718H41.8698ZM16.4059 17.5015C17.2704 21.9026 19.3138 25.8323 21.4358 29.0545C16.4845 27.4827 13.2622 23.0815 12.9478 17.5015H16.4059Z" fill="#5051DB"/>
<path d="M32.7529 27.8756C32.8315 27.9542 32.9887 27.9542 33.1459 27.9542C33.3031 27.9542 33.4603 27.8756 33.6175 27.797C33.8532 27.6398 34.0104 27.3255 33.9318 27.0111L33.3817 23.6316L35.8966 21.1953C36.1324 20.9595 36.211 20.6451 36.1324 20.4093C36.0538 20.095 35.818 19.9378 35.5037 19.8592L32.0456 19.3876L30.5524 16.3225C30.3166 15.7724 29.3735 15.7724 29.1377 16.3225L27.6444 19.3876L24.0292 19.8592C23.7148 19.9378 23.479 20.095 23.4004 20.4093C23.3219 20.7237 23.4004 21.0381 23.6362 21.1953L26.1512 23.6316L25.601 27.0111C25.5224 27.3255 25.6796 27.6398 25.9154 27.797C26.1512 27.9542 26.4655 28.0328 26.7799 27.8756L29.845 26.3038L32.7529 27.8756ZM27.3301 25.7536L27.723 23.4744C27.8016 23.2387 27.6444 22.9243 27.4872 22.7671L25.8368 21.1953L28.116 20.8809C28.3518 20.8809 28.5875 20.6451 28.7447 20.4879L29.7664 18.4445L30.7881 20.4879C30.8667 20.7237 31.1025 20.8809 31.4169 20.8809L33.696 21.1953L32.0456 22.7671C31.8884 22.9243 31.8098 23.2387 31.8098 23.4744L32.2028 25.7536L30.1594 24.6533C29.9236 24.5747 29.845 24.5747 29.6878 24.5747C29.5306 24.5747 29.4521 24.5747 29.2949 24.6533L27.3301 25.7536Z" fill="#5051DB"/>
</svg>
